<?xml version="1.0" standalone="no"?>
<!DOCTYPE svg PUBLIC "-//W3C//DTD SVG 20010904//EN"
 "http://www.w3.org/TR/2001/REC-SVG-20010904/DTD/svg10.dtd">
<svg version="1.0" xmlns="http://www.w3.org/2000/svg"
 width="271.000000pt" height="271.000000pt" viewBox="0 0 271.000000 271.000000"
 preserveAspectRatio="xMidYMid meet">
<metadata>
Created by potrace 1.14, written by Peter Selinger 2001-2017
</metadata>
<g transform="translate(0.000000,271.000000) scale(0.100000,-0.100000)"
fill="#000000" stroke="none">
<path d="M1230 2703 c-460 -43 -898 -349 -1091 -761 -37 -78 -96 -254 -104
-307 -3 -22 -8 -46 -11 -54 -13 -40 -18 -223 -18 -792 l-1 -625 26 -49 c18
-35 39 -59 74 -80 l48 -30 641 1 c353 0 670 3 706 6 395 39 778 274 995 613
144 226 216 484 210 755 -3 111 -6 145 -20 225 -62 355 -289 690 -602 891
-151 97 -366 176 -538 199 -56 8 -262 13 -315 8z"/>
</g>
</svg>
